<?xml version="1.0" encoding="utf-8"?>
<!-- Generator: Adobe Illustrator 19.2.1, SVG Export Plug-In . SVG Version: 6.00 Build 0)  -->
<svg version="1.1" id="Layer_1" xmlns="http://www.w3.org/2000/svg" xmlns:xlink="http://www.w3.org/1999/xlink" x="0px" y="0px"
	 viewBox="0 0 75 75" style="enable-background:new 0 0 75 75;" xml:space="preserve">
<style type="text/css">
	.st0{fill:none;stroke:#596074;stroke-width:2;stroke-linecap:round;stroke-linejoin:round;stroke-miterlimit:22.9256;}
	.st1{fill:none;stroke:#00AEEF;stroke-width:2;stroke-linecap:round;stroke-linejoin:round;stroke-miterlimit:22.9256;}
	.st2{fill:none;stroke:#B0B4C2;stroke-width:2;stroke-linecap:round;stroke-linejoin:round;stroke-miterlimit:22.9256;}
</style>
<g>
	<path class="st0" d="M24.2,47.3l27.6-27.5c3.9-3.9,10.6-0.7,6.1,5.7c-1.4,2-3.5,3.9-4.7,4.6c-1.5,0.9-3,1.3-4.7,1.1
		c-1.2-0.1-2.3-0.5-3.3-1.4L25.9,49.1L24.2,47.3L24.2,47.3z M48.9,28.8c1.1,0.1,2.2-0.2,3.2-0.8c0.9-0.5,2.7-2.1,3.8-3.8
		c2.4-3.5-0.6-4.3-2.4-2.6L45,30.1"/>
	<path class="st0" d="M51.7,23.7c0.3,0.6,0.6,0.9,0.3,2"/>
	<line class="st1" x1="22" y1="49.1" x2="7.3" y2="56.5"/>
	<line class="st1" x1="22.5" y1="49.7" x2="9.7" y2="58.9"/>
	<line class="st1" x1="23.1" y1="50.2" x2="12.1" y2="61.3"/>
	<line class="st1" x1="23.6" y1="50.8" x2="14.5" y2="63.6"/>
	<line class="st1" x1="24.2" y1="51.3" x2="16.9" y2="66"/>
	<polyline class="st0" points="58.4,16.6 61.6,13.4 59.8,11.6 55.4,16.1 	"/>
	<path class="st2" d="M62.2,11.2c3.3,0,5.7,3.3,5.7,6.8c0,3.2-1.5,5.5-3.5,7.5c-4.6,4.4-11.9,7.9-12.9,14.9
		c-0.7,4.9,2.3,10.1,7.7,10.1c2.9,0,5.4-1.6,5.5-2.3"/>
</g>
</svg>
