<?xml version="1.0" encoding="utf-8"?>
<!-- Generator: Adobe Illustrator 19.2.1, SVG Export Plug-In . SVG Version: 6.00 Build 0)  -->
<svg version="1.1" id="Layer_1" xmlns="http://www.w3.org/2000/svg" xmlns:xlink="http://www.w3.org/1999/xlink" x="0px" y="0px"
	 viewBox="0 0 75 75" style="enable-background:new 0 0 75 75;" xml:space="preserve">
<style type="text/css">
	.st0{fill:none;stroke:#596074;stroke-width:2;stroke-miterlimit:22.9256;}
	.st1{fill:none;stroke:#596074;stroke-width:2;stroke-linecap:round;stroke-linejoin:round;stroke-miterlimit:22.9256;}
	.st2{fill:#D1D3D4;stroke:#596074;stroke-width:2;stroke-linecap:round;stroke-linejoin:round;stroke-miterlimit:22.9256;}
</style>
<g>
	<path class="st0" d="M15.4,23.1c7.4,0,14.8,0,22.1,0s14.8,0,22.2,0c0.9,3.2,2,6.8,3.1,10.7c1.2,4.2,2.6,8.9,4.1,14.1
		c-9.8,0-19.6,0-29.3,0c-9.8,0-19.5,0-29.3,0c1.5-5.2,2.8-9.9,4.1-14.1C13.4,29.8,14.4,26.3,15.4,23.1z"/>
	<line class="st1" x1="8.2" y1="47.9" x2="2.7" y2="47.9"/>
	<g>
		<path class="st1" d="M9.6,43c-1.8,0-3.7,0-5.5,0"/>
		<path class="st1" d="M11,38c-1.8,0-3.7,0-5.5,0"/>
		<path class="st1" d="M12.5,33c-1.8,0-3.7,0-5.5,0"/>
		<path class="st1" d="M13.9,28c-1.8,0-3.7,0-5.5,0"/>
	</g>
	<line class="st1" x1="15.4" y1="23.1" x2="9.9" y2="23.1"/>
	<line class="st1" x1="72.3" y1="47.9" x2="66.9" y2="47.9"/>
	<g>
		<path class="st1" d="M70.9,43c-1.8,0-3.7,0-5.5,0"/>
		<path class="st1" d="M69.5,38c-1.8,0-3.7,0-5.5,0"/>
		<path class="st1" d="M68,33c-1.8,0-3.7,0-5.5,0"/>
		<path class="st1" d="M66.6,28c-1.8,0-3.7,0-5.5,0"/>
	</g>
	<line class="st1" x1="65.1" y1="23.1" x2="59.7" y2="23.1"/>
	<polygon class="st2" points="27.1,47.9 43.2,35.9 59.3,47.9 	"/>
	<line class="st1" x1="28.7" y1="43.9" x2="31.8" y2="46.3"/>
	<line class="st1" x1="33.2" y1="40.5" x2="37.1" y2="43.4"/>
	<line class="st1" x1="37.8" y1="37" x2="41.6" y2="39.9"/>
	<line class="st1" x1="48.5" y1="37" x2="44.7" y2="39.9"/>
	<line class="st1" x1="53.1" y1="40.5" x2="49.3" y2="43.4"/>
	<line class="st1" x1="57.7" y1="43.9" x2="54.5" y2="46.3"/>
</g>
</svg>
